<svg xmlns="http://www.w3.org/2000/svg" viewBox="0 0 42.62 51.63"><defs><style>.cls-1{fill:#fff;}</style></defs><title>Asset 3</title><g id="Layer_2" data-name="Layer 2"><g id="Layer_1-2" data-name="Layer 1"><path class="cls-1" d="M11.71,9a3,3,0,0,1,3-3H28a3,3,0,0,1,3,3v7.57h6V9a9,9,0,0,0-9-9H14.7a9,9,0,0,0-9,9v7.57h6Z"/><path class="cls-1" d="M23.73,36v6.1a1.2,1.2,0,0,1-1.2,1.19H20.14a1.2,1.2,0,0,1-1.2-1.19V36a3.89,3.89,0,1,1,4.78,0ZM37.9,20.12H4.78A4.8,4.8,0,0,0,0,24.91V46.84a4.8,4.8,0,0,0,4.78,4.78H37.84a4.8,4.8,0,0,0,4.78-4.78V24.91A4.71,4.71,0,0,0,37.9,20.12Z"/></g></g></svg>