<svg xmlns="http://www.w3.org/2000/svg" viewBox="0 0 148.81 83.77"><defs><style>.cls-1{fill:#fff;}</style></defs><title>Asset 1</title><g id="Layer_2" data-name="Layer 2"><g id="Layer_1-2" data-name="Layer 1"><polygon class="cls-1" points="41.78 64.02 0 72.42 38.43 72.42 41.78 64.02"/><path class="cls-1" d="M137.33,61c-13.55,0-18.77,5.81-20.84,10.19s-5.31,12.58,9,12.58c10.43,0,16-2.11,16-2.11l1.62-4.06a49.58,49.58,0,0,1-12.74,2.13c-5.7,0-5.07-2.64-4.15-5.07L148,72.58s.5-2.65.64-3.84C148.95,66.23,150,61,137.33,61Zm2,6.83c0,.35-.11,1.34-.11,1.34l-11.9,2.71L128.46,69a7,7,0,0,1,6.88-4.64C139.73,64.32,139.35,67.49,139.31,67.82Z"/><polygon class="cls-1" points="60.42 62.26 48.98 62.26 40.52 83.51 51.95 83.51 60.42 62.26"/><polygon class="cls-1" points="63.19 55.32 51.75 55.32 50.32 58.9 61.76 58.9 63.19 55.32"/><polygon class="cls-1" points="21 74.39 9.57 74.37 5.93 83.51 17.36 83.51 21 74.39"/><polygon class="cls-1" points="118.63 64.76 110.25 65.66 103.14 83.51 91.71 83.51 99.85 63.06 121.34 61 118.63 64.76"/><path class="cls-1" d="M80.92,61c-1.34,0-2.63,0-3.86.1l2.3-5.78H67.93S59.7,76,59.35,76.86c-2.14,5.38,2.93,6.91,12.4,6.91A65.5,65.5,0,0,0,87.55,82s5.57-14,5.66-14.2C95.34,62.43,90.39,61,80.92,61ZM77,79.72a26.13,26.13,0,0,1-3.18.14c-3.34,0-3.5-1.9-3-3.18L75.5,65a20,20,0,0,1,3-.14c3.34,0,3.72,1.9,3.2,3.18C81.59,68.28,77,79.72,77,79.72Z"/><polygon class="cls-1" points="17.17 55.32 12.11 68 24.54 65.5 27.17 58.9 45.57 58.9 47 55.32 17.17 55.32"/><path class="cls-1" d="M30.92,16.06a101,101,0,0,0,7.69,9.52c25.62,25.1,43.3-2.59,43.55-2.79C67.7,30.56,51.23,32.05,30.92,16.06Z"/><path class="cls-1" d="M18.56,4c9.65,8.09,39.8,38.42,74,9.57C99.39,7.87,105.3,3.44,112.87.4,91.38-4.08,62.95,31.46,18.56,4Z"/><path class="cls-1" d="M90.21,42.7l8.58-19.37A3.36,3.36,0,0,1,102,21.19h.31a3.26,3.26,0,0,1,3.12,2.14L114,42.7a2.51,2.51,0,0,1,.25,1.09,2.55,2.55,0,0,1-2.55,2.6,2.75,2.75,0,0,1-2.6-1.87l-1.65-3.86H96.61l-1.72,4a2.68,2.68,0,0,1-2.5,1.69,2.5,2.5,0,0,1-2.5-2.53,2.85,2.85,0,0,1,.32-1.16m15.22-6.83L102,27.76l-3.41,8.11Z"/><path class="cls-1" d="M130.53,43.57A2.52,2.52,0,0,1,132,39a2.69,2.69,0,0,1,1.55.51,10.43,10.43,0,0,0,6.29,2.22c2.21,0,3.54-.88,3.54-2.34v-.07c0-1.37-.83-2.07-5-3.12-5-1.27-8.16-2.64-8.16-7.54v-.06c0-4.45,3.59-7.42,8.62-7.42a14.32,14.32,0,0,1,7.81,2.18A2.51,2.51,0,0,1,145.4,28a2.58,2.58,0,0,1-1.37-.38A10.29,10.29,0,0,0,138.85,26c-2.07,0-3.15.93-3.15,2.14v.06c0,1.63,1.05,2.16,5.31,3.24,5,1.29,7.8,3.1,7.8,7.38v.07c0,4.89-3.73,7.63-9,7.63a15.81,15.81,0,0,1-9.25-3"/><path class="cls-1" d="M119.09,24.07a2.72,2.72,0,0,1,5.43,0V43.68a2.71,2.71,0,0,1-5.42,0Z"/></g></g></svg>