<?xml version="1.0" encoding="UTF-8"?>
<svg width="214px" height="77px" viewBox="0 0 214 77" version="1.1" xmlns="http://www.w3.org/2000/svg" xmlns:xlink="http://www.w3.org/1999/xlink">
    <!-- Generator: Sketch 42 (36781) - http://www.bohemiancoding.com/sketch -->
    <title>Group</title>
    <desc>Created with Sketch.</desc>
    <defs>
        <path d="M12.917,16.506 C54.845,57.593 83.778,12.271 84.186,11.923 C60.523,24.66 33.561,27.122 0.329,0.915 C4.661,7.073 8.785,11.893 12.917,16.506 Z" id="path-1"></path>
        <path d="M107.422,12.54 C79.164,23.618 44.511,34.695 0.101,7.28 C15.896,20.536 65.234,70.172 121.191,22.967 C132.387,13.526 142.041,6.262 154.433,1.303 C152.3,0.859 150.121,0.655 147.908,0.655 C135.904,0.655 122.587,6.595 107.422,12.54 Z" id="path-3"></path>
    </defs>
    <g id="Page-1" stroke="none" stroke-width="1" fill="none" fill-rule="evenodd">
        <g id="Group" transform="translate(-13.000000, -20.000000)">
            <g id="Page-1">
                <path d="M45.9175,62.6819 C87.8445,103.7689 116.7775,58.4469 117.1855,58.0999 C93.5225,70.8359 66.5605,73.2979 33.3285,47.0909 C37.6615,53.2489 41.7855,58.0689 45.9175,62.6819" id="Fill-1" fill="#FFFFFF"></path>
                <g id="Group-5" transform="translate(33.000000, 46.176000)">
                    <mask id="mask-2" fill="white">
                        <use xlink:href="#path-1"></use>
                    </mask>
                    <g id="Clip-4"></g>
                    <polygon id="Fill-3" fill="#FFFFFF" mask="url(#mask-2)" points="34.9747 98.8829 -27.5763 24.3329 49.5407 -40.3741 112.0907 34.1729"></polygon>
                </g>
                <path d="M120.4219,32.7161 C92.1639,43.7941 57.5109,54.8711 13.1019,27.4561 C28.8959,40.7121 78.2339,90.3481 134.1919,43.1431 C145.3869,33.7021 155.0409,26.4381 167.4339,21.4801 C165.3009,21.0341 163.1209,20.8311 160.9079,20.8311 C148.9039,20.8301 135.5869,26.7721 120.4219,32.7161" id="Fill-6" fill="#FFFFFF"></path>
                <g id="Group-10" transform="translate(13.000000, 20.176000)">
                    <mask id="mask-4" fill="white">
                        <use xlink:href="#path-3"></use>
                    </mask>
                    <g id="Clip-9"></g>
                    <polygon id="Fill-8" fill="#FFFFFF" mask="url(#mask-4)" points="38.6885 -66.1757 -29.9995 52.7943 115.8555 137.0003 184.5355 18.0363"></polygon>
                </g>
                <g id="Group-17" transform="translate(129.000000, 55.176000)" fill="#FFFFFF">
                    <path d="M26.2715,24.3585 L20.6995,11.0685 L15.1125,24.3465 L26.2715,24.3585 Z M1.3645,35.5295 L15.4065,3.8275 C16.3865,1.6505 18.1755,0.3255 20.5725,0.3255 L21.1035,0.3255 C23.5195,0.3255 25.2425,1.6325 26.2065,3.8275 L40.2795,35.5295 C40.5665,36.1675 40.6935,36.7255 40.6935,37.2985 C40.6935,39.6775 38.8905,41.5795 36.5095,41.5795 C34.4465,41.5795 33.0455,40.3485 32.2695,38.5195 L29.5585,32.1805 L11.8315,32.1845 L9.0095,38.8025 C8.2745,40.5335 6.7855,41.5795 4.9455,41.5795 C2.6225,41.5795 0.8375,39.7345 0.8375,37.4295 C0.8375,36.7975 1.0725,36.1675 1.3645,35.5295 L1.3645,35.5295 Z" id="Fill-11"></path>
                    <path d="M67.3477,36.9542 C66.3677,36.2732 65.6627,35.0212 65.6627,33.6282 C65.6627,31.3412 67.5097,29.5422 69.8047,29.5282 C70.9407,29.5422 71.7757,29.9372 72.3537,30.3482 C75.3867,32.5852 78.7207,33.9702 82.6517,33.9702 C86.2597,33.9702 88.4417,32.5382 88.4417,30.1682 L88.4417,30.0492 C88.4417,27.8002 87.0907,26.6642 80.3367,24.9292 C72.2267,22.8602 66.9767,20.6372 66.9767,12.6242 L66.9767,12.5092 C66.9767,5.2142 72.8547,0.3722 81.0867,0.3722 C85.9847,0.3722 90.2157,1.6332 93.8667,3.9352 C94.8407,4.5082 95.8017,5.7322 95.8017,7.4542 C95.8017,9.7532 93.9667,11.5362 91.6607,11.5362 C90.8077,11.5362 90.1197,11.3032 89.4347,10.9072 C86.4977,9.1702 83.7077,8.1992 80.9617,8.1992 C77.5777,8.1992 75.7997,9.7372 75.7997,11.7102 L75.7997,11.8082 C75.7997,14.4752 77.5297,15.3372 84.4867,17.1152 C92.6477,19.2292 97.2577,22.1772 97.2577,29.2092 L97.2577,29.3132 C97.2577,37.2992 91.1497,41.7992 82.4767,41.7992 C77.1847,41.7992 71.8367,40.2052 67.3477,36.9542" id="Fill-13"></path>
                    <path d="M48.6368,5.0294 C48.6518,2.5644 50.6128,0.6014 53.0878,0.6014 C55.5448,0.6014 57.5258,2.5644 57.5258,5.0294 L57.5258,37.1294 C57.5258,39.6244 55.5448,41.5794 53.0878,41.5624 C50.6128,41.5794 48.6518,39.6174 48.6518,37.1294 L48.6368,5.0294 Z" id="Fill-15"></path>
                </g>
                <rect id="Rectangle" x="0" y="0" width="240" height="116"></rect>
            </g>
        </g>
    </g>
</svg>